# xmcd
#
# Track frame offsets:
#	150
#	24964
#	47684
#	75158
#	96777
#	124885
#	145343
#	164698
#	187349
#	207557
#	231436
#
# Disc length: 3416 seconds
#
# Revision: 2
# Processed by: cddbd v1.5.2PL0 Copyright (c) Steve Scherf et al.
# Submitted via: EZCDAudioConverter 8.0.2.1
#
DISCID=9a0d560b
DTITLE=Various Artist - Top Hits 31. Niệm Khúc Cuối
DYEAR=2007
DGENRE=Contemporary Pop
TTITLE0=Thanh Hà, Trần Thái Hòa - Niệm Khúc Cuối
TTITLE1=Ngọc Liên, Loan CHâu - Ngàn thu áo tím
TTITLE2=Khánh Hà, Ý Lan - Nghìn trùng xa cách
TTITLE3=Khánh Ly, Trần Thu Hà - Giọt lệ thiên thu
TTITLE4=Bằng Kiều, Tuấn Ngọc - LK Đồng xanh, Ôi! Giàn thiên lý đã xa
TTITLE5=Trần Thái Hòa - Tình rơi
TTITLE6=Thế Sơn, Thanh Trúc - Một đời tan vỡ
TTITLE7=Khánh Ly, Tuấn Ngọc - LK Trịnh Công Sơn
TTITLE8=Ngọc Liên - Dòng sông
TTITLE9=Dương Triệu Vũ - Tình phụ
TTITLE10=Ý Lan - Khóc cho vơi lệ nhòa
EXTD=
EXTT0=
EXTT1=
EXTT2=
EXTT3=
EXTT4=
EXTT5=
EXTT6=
EXTT7=
EXTT8=
EXTT9=
EXTT10=
PLAYORDER=
